# xmcd CD database file
#
# Track frame offsets:
#	150
#	35916
#	81057
#	107588
#	134407
#	163003
#	187946
#	213274
#
# Disc length: 3050 seconds
#
# Revision: 2
# Processed by: cddbd v1.5.2PL0 Copyright (c) Steve Scherf et al.
# Submitted via: CDex 1.51
#
DISCID=670be808
DTITLE=Keef Hartley Band - Halfbreed
DYEAR=1969
DGENRE=Blues Rock
TTITLE0=Sacked: introducing Heart And Flowers - Confusion Theme - The Halfbreed
TTITLE1=Born To Die
TTITLE2=Sinnin' For You
TTITLE3=Leavin' Trunk
TTITLE4=Just To Cry
TTITLE5=Too Much Thinking
TTITLE6=Think It Over - Too Much To Take
TTITLE7=Leave It 'Til The Morning
EXTD=YEAR: 1969
EXTT0=
EXTT1=
EXTT2=
EXTT3=
EXTT4=
EXTT5=
EXTT6=
EXTT7=
PLAYORDER=
